<svg xmlns="http://www.w3.org/2000/svg" viewBox="0 0 820 300" font-family="Segoe UI, Helvetica, Arial, sans-serif">
<title>Directed search vs random under an energy budget, across problem scale</title>
<rect x="0" y="0" width="820" height="300" fill="#ffffff"/>
<text x="20" y="28" font-size="16" font-weight="600" fill="#1e293b">Directed search beats random at scale, if its budget scales too</text>
<text x="20" y="47" font-size="12" fill="#64748b">matched evaluations per arm, 50 paired seeds; higher contiguity = more compact aligned kernel</text>
<text x="70" y="70" font-size="12.5" font-weight="600" fill="#1e293b">The advantage:  GA − Random contiguity</text>
<line x1="70" y1="205.3" x2="370" y2="205.3" stroke="#e2e8f0" stroke-width="1"/>
<text x="64" y="209.3" font-size="10.5" text-anchor="end" fill="#64748b">0</text>
<line x1="70" y1="159.8" x2="370" y2="159.8" stroke="#e2e8f0" stroke-width="1"/>
<text x="64" y="163.8" font-size="10.5" text-anchor="end" fill="#64748b">+0.1</text>
<line x1="70" y1="114.4" x2="370" y2="114.4" stroke="#e2e8f0" stroke-width="1"/>
<text x="64" y="118.4" font-size="10.5" text-anchor="end" fill="#64748b">+0.2</text>
<text x="70.0" y="244" font-size="10.5" text-anchor="middle" fill="#64748b">12</text>
<text x="145.0" y="244" font-size="10.5" text-anchor="middle" fill="#64748b">16</text>
<text x="220.0" y="244" font-size="10.5" text-anchor="middle" fill="#64748b">20</text>
<text x="295.0" y="244" font-size="10.5" text-anchor="middle" fill="#64748b">24</text>
<text x="370.0" y="244" font-size="10.5" text-anchor="middle" fill="#64748b">28</text>
<text x="220.0" y="258" font-size="11" text-anchor="middle" fill="#64748b">input size N</text>
<text transform="rotate(-90 38 153.0)" x="38" y="153.0" font-size="11" text-anchor="middle" fill="#64748b">paired gap ± SEM</text>
<line x1="70" y1="205.3" x2="370" y2="205.3" stroke="#64748b" stroke-width="1.2" stroke-dasharray="2 3"/>
<polyline points="70.0,196.2 145.0,173.5 220.0,109.8 295.0,137.1 370.0,173.5" fill="none" stroke="#c56b3e" stroke-width="2.2" stroke-dasharray="5 4" stroke-linejoin="round"/>
<circle cx="70.0" cy="196.2" r="2.8" fill="#c56b3e"/>
<circle cx="145.0" cy="173.5" r="2.8" fill="#c56b3e"/>
<circle cx="220.0" cy="109.8" r="2.8" fill="#c56b3e"/>
<circle cx="295.0" cy="137.1" r="2.8" fill="#c56b3e"/>
<circle cx="370.0" cy="173.5" r="2.8" fill="#c56b3e"/>
<line x1="70.0" y1="182.5" x2="70.0" y2="209.8" stroke="#c56b3e" stroke-width="1.3"/>
<line x1="67.5" y1="182.5" x2="72.5" y2="182.5" stroke="#c56b3e" stroke-width="1.3"/>
<line x1="67.5" y1="209.8" x2="72.5" y2="209.8" stroke="#c56b3e" stroke-width="1.3"/>
<line x1="145.0" y1="155.3" x2="145.0" y2="191.6" stroke="#c56b3e" stroke-width="1.3"/>
<line x1="142.5" y1="155.3" x2="147.5" y2="155.3" stroke="#c56b3e" stroke-width="1.3"/>
<line x1="142.5" y1="191.6" x2="147.5" y2="191.6" stroke="#c56b3e" stroke-width="1.3"/>
<line x1="220.0" y1="91.6" x2="220.0" y2="128.0" stroke="#c56b3e" stroke-width="1.3"/>
<line x1="217.5" y1="91.6" x2="222.5" y2="91.6" stroke="#c56b3e" stroke-width="1.3"/>
<line x1="217.5" y1="128.0" x2="222.5" y2="128.0" stroke="#c56b3e" stroke-width="1.3"/>
<line x1="295.0" y1="118.9" x2="295.0" y2="155.3" stroke="#c56b3e" stroke-width="1.3"/>
<line x1="292.5" y1="118.9" x2="297.5" y2="118.9" stroke="#c56b3e" stroke-width="1.3"/>
<line x1="292.5" y1="155.3" x2="297.5" y2="155.3" stroke="#c56b3e" stroke-width="1.3"/>
<line x1="370.0" y1="155.3" x2="370.0" y2="191.6" stroke="#c56b3e" stroke-width="1.3"/>
<line x1="367.5" y1="155.3" x2="372.5" y2="155.3" stroke="#c56b3e" stroke-width="1.3"/>
<line x1="367.5" y1="191.6" x2="372.5" y2="191.6" stroke="#c56b3e" stroke-width="1.3"/>
<polyline points="70.0,196.2 145.0,178.0 220.0,105.3 295.0,128.0 370.0,137.1" fill="none" stroke="#1f7a8c" stroke-width="2.2" stroke-linejoin="round"/>
<circle cx="70.0" cy="196.2" r="2.8" fill="#1f7a8c"/>
<circle cx="145.0" cy="178.0" r="2.8" fill="#1f7a8c"/>
<circle cx="220.0" cy="105.3" r="2.8" fill="#1f7a8c"/>
<circle cx="295.0" cy="128.0" r="2.8" fill="#1f7a8c"/>
<circle cx="370.0" cy="137.1" r="2.8" fill="#1f7a8c"/>
<line x1="70.0" y1="182.5" x2="70.0" y2="209.8" stroke="#1f7a8c" stroke-width="1.3"/>
<line x1="67.5" y1="182.5" x2="72.5" y2="182.5" stroke="#1f7a8c" stroke-width="1.3"/>
<line x1="67.5" y1="209.8" x2="72.5" y2="209.8" stroke="#1f7a8c" stroke-width="1.3"/>
<line x1="145.0" y1="159.8" x2="145.0" y2="196.2" stroke="#1f7a8c" stroke-width="1.3"/>
<line x1="142.5" y1="159.8" x2="147.5" y2="159.8" stroke="#1f7a8c" stroke-width="1.3"/>
<line x1="142.5" y1="196.2" x2="147.5" y2="196.2" stroke="#1f7a8c" stroke-width="1.3"/>
<line x1="220.0" y1="91.6" x2="220.0" y2="118.9" stroke="#1f7a8c" stroke-width="1.3"/>
<line x1="217.5" y1="91.6" x2="222.5" y2="91.6" stroke="#1f7a8c" stroke-width="1.3"/>
<line x1="217.5" y1="118.9" x2="222.5" y2="118.9" stroke="#1f7a8c" stroke-width="1.3"/>
<line x1="295.0" y1="114.4" x2="295.0" y2="141.6" stroke="#1f7a8c" stroke-width="1.3"/>
<line x1="292.5" y1="114.4" x2="297.5" y2="114.4" stroke="#1f7a8c" stroke-width="1.3"/>
<line x1="292.5" y1="141.6" x2="297.5" y2="141.6" stroke="#1f7a8c" stroke-width="1.3"/>
<line x1="370.0" y1="118.9" x2="370.0" y2="155.3" stroke="#1f7a8c" stroke-width="1.3"/>
<line x1="367.5" y1="118.9" x2="372.5" y2="118.9" stroke="#1f7a8c" stroke-width="1.3"/>
<line x1="367.5" y1="155.3" x2="372.5" y2="155.3" stroke="#1f7a8c" stroke-width="1.3"/>
<text x="370.0" y="129.1" font-size="10.5" font-weight="700" text-anchor="end" fill="#1f7a8c">+0.15</text>
<text x="370.0" y="187.5" font-size="10.5" text-anchor="end" fill="#c56b3e">+0.07</text>
<text x="510" y="70" font-size="12.5" font-weight="600" fill="#1e293b">Why:  GA converges, random can’t</text>
<line x1="510" y1="211.3" x2="760" y2="211.3" stroke="#e2e8f0" stroke-width="1"/>
<text x="504" y="215.3" font-size="10.5" text-anchor="end" fill="#64748b">0.4</text>
<line x1="510" y1="178.0" x2="760" y2="178.0" stroke="#e2e8f0" stroke-width="1"/>
<text x="504" y="182.0" font-size="10.5" text-anchor="end" fill="#64748b">0.5</text>
<line x1="510" y1="144.7" x2="760" y2="144.7" stroke="#e2e8f0" stroke-width="1"/>
<text x="504" y="148.7" font-size="10.5" text-anchor="end" fill="#64748b">0.6</text>
<line x1="510" y1="111.3" x2="760" y2="111.3" stroke="#e2e8f0" stroke-width="1"/>
<text x="504" y="115.3" font-size="10.5" text-anchor="end" fill="#64748b">0.7</text>
<line x1="510" y1="78.0" x2="760" y2="78.0" stroke="#e2e8f0" stroke-width="1"/>
<text x="504" y="82.0" font-size="10.5" text-anchor="end" fill="#64748b">0.8</text>
<text x="510.0" y="244" font-size="10.5" text-anchor="middle" fill="#64748b">12</text>
<text x="572.5" y="244" font-size="10.5" text-anchor="middle" fill="#64748b">16</text>
<text x="635.0" y="244" font-size="10.5" text-anchor="middle" fill="#64748b">20</text>
<text x="697.5" y="244" font-size="10.5" text-anchor="middle" fill="#64748b">24</text>
<text x="760.0" y="244" font-size="10.5" text-anchor="middle" fill="#64748b">28</text>
<text x="635.0" y="258" font-size="11" text-anchor="middle" fill="#64748b">input size N</text>
<text transform="rotate(-90 478 153.0)" x="478" y="153.0" font-size="11" text-anchor="middle" fill="#64748b">contiguity (taps / span)</text>
<polyline points="510.0,108.0 572.5,134.7 635.0,191.3 697.5,201.3 760.0,198.0" fill="none" stroke="#94a3b8" stroke-width="2.2" stroke-dasharray="1.5 3" stroke-linejoin="round"/>
<circle cx="510.0" cy="108.0" r="2.8" fill="#94a3b8"/>
<circle cx="572.5" cy="134.7" r="2.8" fill="#94a3b8"/>
<circle cx="635.0" cy="191.3" r="2.8" fill="#94a3b8"/>
<circle cx="697.5" cy="201.3" r="2.8" fill="#94a3b8"/>
<circle cx="760.0" cy="198.0" r="2.8" fill="#94a3b8"/>
<polyline points="510.0,101.3 572.5,118.0 635.0,121.3 697.5,158.0 760.0,171.3" fill="none" stroke="#c56b3e" stroke-width="2.2" stroke-dasharray="5 4" stroke-linejoin="round"/>
<circle cx="510.0" cy="101.3" r="2.8" fill="#c56b3e"/>
<circle cx="572.5" cy="118.0" r="2.8" fill="#c56b3e"/>
<circle cx="635.0" cy="121.3" r="2.8" fill="#c56b3e"/>
<circle cx="697.5" cy="158.0" r="2.8" fill="#c56b3e"/>
<circle cx="760.0" cy="171.3" r="2.8" fill="#c56b3e"/>
<polyline points="510.0,101.3 572.5,114.7 635.0,118.0 697.5,144.7 760.0,148.0" fill="none" stroke="#1f7a8c" stroke-width="2.2" stroke-linejoin="round"/>
<circle cx="510.0" cy="101.3" r="2.8" fill="#1f7a8c"/>
<circle cx="572.5" cy="114.7" r="2.8" fill="#1f7a8c"/>
<circle cx="635.0" cy="118.0" r="2.8" fill="#1f7a8c"/>
<circle cx="697.5" cy="144.7" r="2.8" fill="#1f7a8c"/>
<circle cx="760.0" cy="148.0" r="2.8" fill="#1f7a8c"/>
<text x="760.0" y="140.0" font-size="10.5" font-weight="700" text-anchor="middle" fill="#1f7a8c">0.59</text>
<text x="760.0" y="186.3" font-size="10.5" text-anchor="middle" fill="#c56b3e">0.52</text>
<line x1="70" y1="274" x2="94" y2="274" stroke="#1f7a8c" stroke-width="2.6"/>
<text x="99" y="278" font-size="11" fill="#1e293b">budget scales with N</text>
<line x1="235" y1="274" x2="259" y2="274" stroke="#c56b3e" stroke-width="2.6" stroke-dasharray="5 4"/>
<text x="264" y="278" font-size="11" fill="#1e293b">fixed budget</text>
<line x1="360" y1="274" x2="384" y2="274" stroke="#94a3b8" stroke-width="2.6" stroke-dasharray="1.5 3"/>
<text x="389" y="278" font-size="11" fill="#1e293b">random</text>
</svg>