<svg xmlns="http://www.w3.org/2000/svg" viewBox="0 0 560 330" font-family="Segoe UI, Helvetica, Arial, sans-serif">
<title>The emergence boundary recedes as search budget grows</title>
<rect x="0" y="0" width="560" height="330" fill="#ffffff"/>
<text x="20" y="27" font-size="15.5" font-weight="600" fill="#1e293b">The emergence boundary recedes as the search budget grows</text>
<text x="20" y="45" font-size="11.5" fill="#64748b">Share of GA taps landing on the generative offsets, vs input size N, at three search budgets (8 seeds/cell).</text>
<line x1="66" y1="268.0" x2="496" y2="268.0" stroke="#e2e8f0" stroke-width="1"/>
<text x="59" y="272.0" font-size="10.5" text-anchor="end" fill="#64748b">0.0</text>
<line x1="66" y1="228.8" x2="496" y2="228.8" stroke="#e2e8f0" stroke-width="1"/>
<text x="59" y="232.8" font-size="10.5" text-anchor="end" fill="#64748b">0.2</text>
<line x1="66" y1="189.6" x2="496" y2="189.6" stroke="#e2e8f0" stroke-width="1"/>
<text x="59" y="193.6" font-size="10.5" text-anchor="end" fill="#64748b">0.4</text>
<line x1="66" y1="150.4" x2="496" y2="150.4" stroke="#e2e8f0" stroke-width="1"/>
<text x="59" y="154.4" font-size="10.5" text-anchor="end" fill="#64748b">0.6</text>
<line x1="66" y1="111.2" x2="496" y2="111.2" stroke="#e2e8f0" stroke-width="1"/>
<text x="59" y="115.2" font-size="10.5" text-anchor="end" fill="#64748b">0.8</text>
<line x1="66" y1="72.0" x2="496" y2="72.0" stroke="#e2e8f0" stroke-width="1"/>
<text x="59" y="76.0" font-size="10.5" text-anchor="end" fill="#64748b">1.0</text>
<line x1="66" y1="189.6" x2="496" y2="189.6" stroke="#c56b3e" stroke-width="1.4" stroke-dasharray="5 4"/>
<text x="494" y="183.6" font-size="10" text-anchor="end" fill="#c56b3e">N* threshold (0.40)</text>
<text x="66.0" y="284" font-size="10.5" text-anchor="middle" fill="#64748b">12</text>
<text x="152.0" y="284" font-size="10.5" text-anchor="middle" fill="#64748b">16</text>
<text x="238.0" y="284" font-size="10.5" text-anchor="middle" fill="#64748b">20</text>
<text x="324.0" y="284" font-size="10.5" text-anchor="middle" fill="#64748b">24</text>
<text x="410.0" y="284" font-size="10.5" text-anchor="middle" fill="#64748b">28</text>
<text x="496.0" y="284" font-size="10.5" text-anchor="middle" fill="#64748b">32</text>
<text x="281.0" y="300" font-size="11" text-anchor="middle" fill="#64748b">input size N (offsets to prune)</text>
<text transform="rotate(-90 24 170.0)" x="24" y="170.0" font-size="11" text-anchor="middle" fill="#64748b">GA on-relevance</text>
<polyline points="66.0,91.6 152.0,183.7 238.0,183.7 324.0,224.9 410.0,238.6 496.0,248.4" fill="none" stroke="#9ecfd6" stroke-width="2.4" stroke-linejoin="round"/>
<circle cx="66.0" cy="91.6" r="3" fill="#9ecfd6"/>
<circle cx="152.0" cy="183.7" r="3" fill="#9ecfd6"/>
<circle cx="238.0" cy="183.7" r="3" fill="#9ecfd6"/>
<circle cx="324.0" cy="224.9" r="3" fill="#9ecfd6"/>
<circle cx="410.0" cy="238.6" r="3" fill="#9ecfd6"/>
<circle cx="496.0" cy="248.4" r="3" fill="#9ecfd6"/>
<polyline points="66.0,91.6 152.0,117.1 238.0,103.4 324.0,201.4 410.0,191.6 496.0,222.9" fill="none" stroke="#2b8a9e" stroke-width="2.4" stroke-linejoin="round"/>
<circle cx="66.0" cy="91.6" r="3" fill="#2b8a9e"/>
<circle cx="152.0" cy="117.1" r="3" fill="#2b8a9e"/>
<circle cx="238.0" cy="103.4" r="3" fill="#2b8a9e"/>
<circle cx="324.0" cy="201.4" r="3" fill="#2b8a9e"/>
<circle cx="410.0" cy="191.6" r="3" fill="#2b8a9e"/>
<circle cx="496.0" cy="222.9" r="3" fill="#2b8a9e"/>
<polyline points="66.0,91.6 152.0,117.1 238.0,107.3 324.0,136.7 410.0,166.1 496.0,183.7" fill="none" stroke="#14506b" stroke-width="2.4" stroke-linejoin="round"/>
<circle cx="66.0" cy="91.6" r="3" fill="#14506b"/>
<circle cx="152.0" cy="117.1" r="3" fill="#14506b"/>
<circle cx="238.0" cy="107.3" r="3" fill="#14506b"/>
<circle cx="324.0" cy="136.7" r="3" fill="#14506b"/>
<circle cx="410.0" cy="166.1" r="3" fill="#14506b"/>
<circle cx="496.0" cy="183.7" r="3" fill="#14506b"/>
<text x="504.0" y="252.4" font-size="10" fill="#9ecfd6" font-weight="600">0.10</text>
<text x="504.0" y="226.9" font-size="10" fill="#2b8a9e" font-weight="600">0.23</text>
<text x="504.0" y="187.7" font-size="10" fill="#14506b" font-weight="600">0.43</text>
<line x1="310" y1="80" x2="328" y2="80" stroke="#9ecfd6" stroke-width="2.6"/>
<text x="334" y="83.5" font-size="10" fill="#1e293b">~1k evals (40 gens)</text>
<line x1="310" y1="96" x2="328" y2="96" stroke="#2b8a9e" stroke-width="2.6"/>
<text x="334" y="99.5" font-size="10" fill="#1e293b">~3k evals (120 gens)</text>
<line x1="310" y1="112" x2="328" y2="112" stroke="#14506b" stroke-width="2.6"/>
<text x="334" y="115.5" font-size="10" fill="#1e293b">~9k evals (360 gens)</text>
<text x="20" y="318" font-size="10.5" fill="#64748b">N* (last N above 0.40): 20 → 20 → ≥32 as budget rises ~1k → 3k → 9k evals — pushed outward, not fixed.</text>
</svg>